<mxfile host="65bd71144e">
    <diagram id="ld_233QGI8_kWVuAYu8P" name="Pagina-1">
        <mxGraphModel dx="1167" dy="762" grid="1" gridSize="10" guides="1" tooltips="1" connect="1" arrows="1" fold="1" page="1" pageScale="1" pageWidth="827" pageHeight="1169" math="0" shadow="0">
            <root>
                <mxCell id="0"/>
                <mxCell id="1" parent="0"/>
                <mxCell id="uX4BIjo746ywbt0pbhI5-13" value="" style="ellipse;whiteSpace=wrap;html=1;fillColor=#f8cecc;strokeColor=#b85450;opacity=30;rotation=0;" parent="1" vertex="1">
                    <mxGeometry x="481" y="200" width="329" height="350" as="geometry"/>
                </mxCell>
                <mxCell id="uX4BIjo746ywbt0pbhI5-9" value="" style="ellipse;whiteSpace=wrap;html=1;fillColor=#fff2cc;strokeColor=#d6b656;opacity=30;" parent="1" vertex="1">
                    <mxGeometry x="65" y="415" width="430" height="340" as="geometry"/>
                </mxCell>
                <mxCell id="uX4BIjo746ywbt0pbhI5-10" value="" style="ellipse;whiteSpace=wrap;html=1;fillColor=#dae8fc;strokeColor=#6c8ebf;opacity=30;rotation=10;" parent="1" vertex="1">
                    <mxGeometry x="51" y="60" width="430" height="340" as="geometry"/>
                </mxCell>
                <mxCell id="uX4BIjo746ywbt0pbhI5-1" value="Router" style="ellipse;whiteSpace=wrap;html=1;aspect=fixed;" parent="1" vertex="1">
                    <mxGeometry x="380" y="340" width="140" height="140" as="geometry"/>
                </mxCell>
                <mxCell id="uX4BIjo746ywbt0pbhI5-2" value="Host" style="rhombus;whiteSpace=wrap;html=1;" parent="1" vertex="1">
                    <mxGeometry x="680" y="180" width="140" height="140" as="geometry"/>
                </mxCell>
                <mxCell id="uX4BIjo746ywbt0pbhI5-3" value="Red" style="whiteSpace=wrap;html=1;aspect=fixed;" parent="1" vertex="1">
                    <mxGeometry x="600" y="440" width="80" height="80" as="geometry"/>
                </mxCell>
                <mxCell id="uX4BIjo746ywbt0pbhI5-4" value="Employee2" style="whiteSpace=wrap;html=1;aspect=fixed;" parent="1" vertex="1">
                    <mxGeometry x="300" y="560" width="80" height="80" as="geometry"/>
                </mxCell>
                <mxCell id="uX4BIjo746ywbt0pbhI5-5" value="Employee1" style="whiteSpace=wrap;html=1;aspect=fixed;" parent="1" vertex="1">
                    <mxGeometry x="180" y="560" width="80" height="80" as="geometry"/>
                </mxCell>
                <mxCell id="uX4BIjo746ywbt0pbhI5-6" value="DC" style="whiteSpace=wrap;html=1;aspect=fixed;" parent="1" vertex="1">
                    <mxGeometry x="120" y="180" width="80" height="80" as="geometry"/>
                </mxCell>
                <mxCell id="uX4BIjo746ywbt0pbhI5-7" value="Database" style="whiteSpace=wrap;html=1;aspect=fixed;" parent="1" vertex="1">
                    <mxGeometry x="240" y="120" width="80" height="80" as="geometry"/>
                </mxCell>
                <mxCell id="uX4BIjo746ywbt0pbhI5-8" value="Web" style="whiteSpace=wrap;html=1;aspect=fixed;" parent="1" vertex="1">
                    <mxGeometry x="240" y="240" width="80" height="80" as="geometry"/>
                </mxCell>
                <mxCell id="uX4BIjo746ywbt0pbhI5-11" value="&lt;font style=&quot;font-size: 15px;&quot;&gt;&lt;b&gt;172.30.42.0/26&lt;/b&gt;&lt;/font&gt;" style="text;html=1;strokeColor=none;fillColor=none;align=center;verticalAlign=middle;whiteSpace=wrap;rounded=0;opacity=30;" parent="1" vertex="1">
                    <mxGeometry x="350" y="260" width="100" height="45" as="geometry"/>
                </mxCell>
                <mxCell id="uX4BIjo746ywbt0pbhI5-12" value="&lt;font style=&quot;font-size: 15px;&quot;&gt;&lt;b&gt;172.30.128.0/25&lt;br&gt;&lt;/b&gt;&lt;/font&gt;" style="text;html=1;strokeColor=none;fillColor=none;align=center;verticalAlign=middle;whiteSpace=wrap;rounded=0;opacity=30;" parent="1" vertex="1">
                    <mxGeometry x="244" y="447.5" width="136" height="45" as="geometry"/>
                </mxCell>
                <mxCell id="uX4BIjo746ywbt0pbhI5-14" value="&lt;font style=&quot;font-size: 15px&quot;&gt;&lt;b&gt;10.0.2.0/24&lt;br&gt;&lt;/b&gt;&lt;/font&gt;" style="text;html=1;strokeColor=none;fillColor=none;align=center;verticalAlign=middle;whiteSpace=wrap;rounded=0;opacity=30;" parent="1" vertex="1">
                    <mxGeometry x="550" y="380" width="100" height="45" as="geometry"/>
                </mxCell>
            </root>
        </mxGraphModel>
    </diagram>
</mxfile>